<?xml version="1.0" standalone="no"?>
<!DOCTYPE svg PUBLIC "-//W3C//DTD SVG 20010904//EN"
 "http://www.w3.org/TR/2001/REC-SVG-20010904/DTD/svg10.dtd">
<svg version="1.0" xmlns="http://www.w3.org/2000/svg"
 width="740.000000pt" height="740.000000pt" viewBox="0 0 740.000000 740.000000"
 preserveAspectRatio="xMidYMid meet">

<g transform="translate(0.000000,740.000000) scale(0.100000,-0.100000)"
fill="#000000" stroke="none">
<path d="M2515 6334 c-22 -2 -89 -9 -149 -14 -219 -22 -460 -74 -617 -135 -90
-35 -173 -74 -167 -79 1 -2 46 3 98 12 63 9 174 15 330 15 256 1 351 -12 512
-69 184 -65 324 -183 396 -334 111 -232 120 -533 26 -879 -148 -543 -568
-1074 -1058 -1337 l-81 -44 101 0 c457 -1 863 -299 1102 -810 27 -58 72 -166
100 -240 183 -492 377 -822 614 -1045 345 -324 757 -395 1283 -221 72 24 163
58 203 76 l73 33 -91 23 c-351 89 -677 386 -883 806 -66 135 -112 252 -167
430 -90 290 -172 465 -302 640 -179 241 -443 422 -710 487 -38 9 -68 18 -68
21 0 4 28 12 63 19 276 57 680 260 884 444 292 264 430 541 464 929 29 334
-67 605 -293 824 -230 224 -578 367 -1048 429 -109 15 -529 28 -615 19z"/>
<path d="M3305 6329 c739 -71 1241 -376 1388 -844 71 -227 58 -531 -34 -792
-120 -340 -385 -620 -777 -821 -126 -65 -297 -132 -427 -167 -136 -37 -136
-37 -90 -47 183 -40 383 -146 544 -288 219 -193 362 -437 490 -835 77 -241
139 -391 219 -536 209 -374 513 -632 845 -713 l90 -22 -72 -32 c-112 -50 -289
-108 -418 -137 -65 -15 -120 -29 -123 -32 -12 -13 275 8 374 27 125 24 301 80
432 136 l88 38 -54 11 c-197 40 -386 145 -558 309 -248 237 -412 530 -546 972
-102 340 -239 578 -444 776 -170 163 -413 297 -587 323 -43 7 -54 25 -16 25
60 0 322 91 486 169 514 245 820 623 891 1102 22 153 15 379 -16 494 -120 448
-545 748 -1210 854 -144 23 -369 42 -485 40 l-80 -2 90 -8z"/>
</g>
</svg>
